<svg width="500" height="500" viewBox="0 0 500 500" fill="none" xmlns="http://www.w3.org/2000/svg">
<g clip-path="url(#clip0_56_241)">
<rect width="500" height="500" rx="150" fill="white"/>
<g clip-path="url(#clip1_56_241)">
<path d="M563.857 128.275H391.236C354.192 128.275 317.977 138.913 286.818 158.981L250 182.596L213.182 158.981C182.054 138.917 145.799 128.255 108.764 128.275H-63.8571C-77.2112 128.275 -88 139.064 -88 152.418V580.953C-88 594.307 -77.2112 605.096 -63.8571 605.096H108.764C145.808 605.096 182.023 615.734 213.182 635.803L246.68 657.381C247.661 657.984 248.793 658.361 249.925 658.361C251.056 658.361 252.188 658.06 253.169 657.381L286.667 635.803C317.902 615.734 354.192 605.096 391.236 605.096H563.857C577.211 605.096 588 594.307 588 580.953V152.418C588 139.064 577.211 128.275 563.857 128.275ZM108.764 550.775H-33.6786V182.596H108.764C135.472 182.596 161.426 190.216 183.833 204.627L220.651 228.241L225.857 231.636V580.199C189.945 560.885 149.807 550.775 108.764 550.775ZM533.679 550.775H391.236C350.193 550.775 310.055 560.885 274.143 580.199V231.636L279.349 228.241L316.167 204.627C338.574 190.216 364.528 182.596 391.236 182.596H533.679V550.775ZM163.161 279.168H22.9817C20.0393 279.168 17.625 281.733 17.625 284.826V318.777C17.625 321.87 20.0393 324.435 22.9817 324.435H163.086C166.028 324.435 168.442 321.87 168.442 318.777V284.826C168.518 281.733 166.104 279.168 163.161 279.168ZM331.482 284.826V318.777C331.482 321.87 333.896 324.435 336.839 324.435H476.943C479.885 324.435 482.3 321.87 482.3 318.777V284.826C482.3 281.733 479.885 279.168 476.943 279.168H336.839C333.896 279.168 331.482 281.733 331.482 284.826ZM163.161 384.793H22.9817C20.0393 384.793 17.625 387.358 17.625 390.451V424.402C17.625 427.495 20.0393 430.06 22.9817 430.06H163.086C166.028 430.06 168.442 427.495 168.442 424.402V390.451C168.518 387.358 166.104 384.793 163.161 384.793ZM477.018 384.793H336.839C333.896 384.793 331.482 387.358 331.482 390.451V424.402C331.482 427.495 333.896 430.06 336.839 430.06H476.943C479.885 430.06 482.3 427.495 482.3 424.402V390.451C482.375 387.358 479.961 384.793 477.018 384.793Z" fill="#1677FF"/>
</g>
</g>
<defs>
<clipPath id="clip0_56_241">
<rect width="500" height="500" rx="150" fill="white"/>
</clipPath>
<clipPath id="clip1_56_241">
<rect width="676" height="676" fill="white" transform="translate(-88 55)"/>
</clipPath>
</defs>
</svg>
